<svg xmlns="http://www.w3.org/2000/svg" xmlns:xlink="http://www.w3.org/1999/xlink" width="10" height="10.999987602233887" viewBox="0 0 10 10.999987602233887" fill="none">
<path   fill="rgba(255, 255, 255, 1)"  d="M1.5 -9.53674e-07L8.5 -9.53674e-07C9.32843 -9.53674e-07 10 0.671573 10 1.5L10 3.49999C10 4.32842 9.32843 4.99999 8.5 4.99999L1.5 4.99999C0.671573 4.99999 0 4.32842 0 3.49999L0 1.5C0 0.671573 0.671573 -9.53674e-07 1.5 -9.53674e-07ZM1.5 1C1.22386 1 1 1.22386 1 1.5L1 3.49999C1 3.77613 1.22386 3.99999 1.5 3.99999L8.5 3.99999C8.77614 3.99999 9 3.77613 9 3.49999L9 1.5C9 1.22386 8.77614 1 8.5 1L1.5 1Z">
</path>
<path   fill="rgba(255, 255, 255, 1)"  d="M1 3.5L1 9.72221L1 9.72221C1 9.87562 1.12436 9.99999 1.27778 9.99999L1.27778 10.5L1.27778 9.99999L8.72222 9.99999L8.72222 10.5L8.72222 9.99999C8.87564 9.99999 9 9.87562 9 9.72221L9.5 9.72221L9 9.72221L9 3.5L10 3.5L10 9.72221L10 9.72221C10 10.4279 9.42792 11 8.72222 11L8.72222 11L1.27778 11L1.27778 11C0.57208 11 0 10.4279 0 9.72221L0.5 9.72221L0 9.72221L0 3.5L1 3.5Z">
</path>
<rect  x="6.5" y="2.5" width="3" height="1" rx="0.5"    fill="#FFFFFF" >
</rect>
</svg>
