<svg xmlns="http://www.w3.org/2000/svg" xmlns:xlink="http://www.w3.org/1999/xlink" width="11.053466796875" height="9.745368957519531" viewBox="0 0 11.053466796875 9.745368957519531" fill="none">
<rect x="7.66864013671875" y="5.7562255859375" width="3.101104736328125" height="1.10357666015625"   fill="#FFFFFF" >
</rect>
<path   fill="rgba(255, 255, 255, 1)"  d="M2.5 3.8743e-07L8.55344 3.8743e-07C9.93415 3.8743e-07 11.0534 1.11929 11.0534 2.5L11.0534 7.24537C11.0534 8.62608 9.93415 9.74537 8.55344 9.74537L2.5 9.74537C1.11929 9.74537 -1.19209e-07 8.62608 -1.19209e-07 7.24537L-1.19209e-07 2.5C-1.19209e-07 1.11929 1.11929 3.8743e-07 2.5 3.8743e-07ZM2.5 1C1.67157 1 1 1.67157 1 2.5L1 7.24537C1 8.0738 1.67157 8.74537 2.5 8.74537L8.55344 8.74537C9.38187 8.74537 10.0534 8.0738 10.0534 7.24537L10.0534 2.5C10.0534 1.67157 9.38187 1 8.55344 1L2.5 1Z">
</path>
<rect x="0.00885009765625" y="3.505950927734375" width="11.03582763671875" height="1.10357666015625"   fill="#FFFFFF" >
</rect>
</svg>
